# File created by Blade
# Date/Time:  Thu Sep 25 15:31:15 2014
# Frame Rate: 120.000 fps
#------------------------------------------------------
:FULLY-SPECIFIED
:DEGREES
492
root 2.141525 31.229504 -0.505474 211.680552 -61.403052 -94.869401
Spine 8.915062 12.888052 -21.108105
Head -73.538574 12.029050 6.952295
LeftShoulder 4.621651 -9.881456 43.812108
LeftArm 54.388270 -55.544277 -36.608413
LeftForeArm 9.447712 -0.000000 23.111340
LeftHand -45.566787 0.000000 54.397998
LeftHandThumb1 -26.253704 0.000000 33.147579
RightShoulder 5.482155 48.935718 -46.899648
RightArm 36.512708 29.858320 39.026028
RightForeArm -10.534149 0.000000 29.943911
RightHand -14.144698 -0.000000 -31.732465
RightHandThumb1 -24.326973 -0.000000 -32.862282
LeftUpLeg -111.109489 15.592286 9.825622
LeftLeg 38.757978 -0.000000 -0.000000
LeftFoot -41.004347 17.187680 -26.422671
LeftToeBase -8.592934 -0.000000 0.000000
RightUpLeg -17.910902 -12.730220 -2.638864
RightLeg 16.844264 -0.000000 -0.000000
RightFoot 15.132271 -6.565838 -6.012021
RightToeBase 5.598899 -0.000000 -0.000000
493
root 1.714312 31.455740 -0.495937 211.707075 -61.573567 -92.582038
Spine 7.908810 12.852578 -20.697804
Head -73.821739 11.891560 7.069318
LeftShoulder 3.293541 -12.801558 43.809690
LeftArm 55.623947 -53.583027 -38.957343
LeftForeArm 10.833443 -0.000000 24.213602
LeftHand -46.460512 0.000000 59.868614
LeftHandThumb1 -26.253704 0.000000 33.147579
RightShoulder 4.834799 47.737025 -46.925634
RightArm 37.888865 30.600280 39.667392
RightForeArm -10.154864 0.000000 30.284599
RightHand -13.638777 -0.000000 -40.614152
RightHandThumb1 -24.326973 -0.000000 -32.862282
LeftUpLeg -110.782741 16.312226 10.251353
LeftLeg 34.894434 -0.000000 -0.000000
LeftFoot -39.203133 17.720009 -25.562495
LeftToeBase -8.877924 -0.000000 0.000000
RightUpLeg -16.206446 -12.797160 -3.421036
RightLeg 17.100884 -0.000000 -0.000000
RightFoot 15.543088 -6.478486 -5.887323
RightToeBase 7.063701 -0.000000 -0.000000
494
root 1.283917 31.698607 -0.492963 211.651665 -61.815391 -90.181610
Spine 6.842322 12.887585 -20.270284
Head -74.130767 11.692236 7.414479
LeftShoulder 1.775307 -14.736186 43.800794
LeftArm 58.441917 -52.321800 -42.495450
LeftForeArm 12.706643 -0.000000 25.276988
LeftHand -46.975344 -0.000000 63.316196
LeftHandThumb1 -26.253704 0.000000 33.147579
RightShoulder 4.283735 45.506079 -46.157444
RightArm 40.798449 32.298011 40.566257
RightForeArm -10.492265 -0.000000 30.246688
RightHand -13.285154 -0.000000 -47.202343
RightHandThumb1 -24.326973 -0.000000 -32.862282
LeftUpLeg -110.327148 17.043668 10.540812
LeftLeg 30.565662 -0.000000 -0.000000
LeftFoot -36.849496 17.930888 -24.580638
LeftToeBase -9.191839 -0.000000 0.000000
RightUpLeg -14.493786 -12.905896 -4.077239
RightLeg 17.230108 -0.000000 -0.000000
RightFoot 16.157817 -6.417072 -5.611654
RightToeBase 7.698109 -0.000000 -0.000000
495
root 0.855384 31.956227 -0.503539 211.288636 -62.092175 -87.474354
Spine 5.787463 12.981457 -19.757047
Head -74.463799 11.655397 7.893756
LeftShoulder -0.272074 -16.116100 43.662389
LeftArm 62.005953 -50.684194 -45.954792
LeftForeArm 14.383953 -0.000000 25.922737
LeftHand -47.020916 -0.000000 65.645135
LeftHandThumb1 -26.253704 0.000000 33.147579
RightShoulder 3.860663 43.074634 -44.925299
RightArm 44.070967 34.198854 41.232876
RightForeArm -10.899281 -0.000000 30.227478
RightHand -13.113735 0.000000 -52.291887
RightHandThumb1 -24.326973 -0.000000 -32.862282
LeftUpLeg -109.741595 17.852476 10.645383
LeftLeg 25.899343 -0.000000 -0.000000
LeftFoot -33.703554 17.903387 -23.354440
LeftToeBase -9.647657 -0.000000 0.000000
RightUpLeg -12.717676 -12.735086 -4.571696
RightLeg 17.349118 -0.000000 -0.000000
RightFoot 16.655023 -6.304329 -5.777105
RightToeBase 8.424089 -0.000000 -0.000000
496
root 0.429963 32.211129 -0.513359 210.936231 -62.411447 -84.911362
Spine 4.788668 13.191984 -19.257319
Head -74.779601 11.503939 8.615078
LeftShoulder -2.107178 -16.554858 43.432476
LeftArm 66.038109 -49.524514 -49.402837
LeftForeArm 15.529167 -0.000000 26.248625
LeftHand -45.792402 -0.000000 66.200400
LeftHandThumb1 -26.253704 0.000000 33.147579
RightShoulder 3.663060 40.209554 -43.219440
RightArm 47.624854 36.446446 41.592318
RightForeArm -11.331537 -0.000000 30.374115
RightHand -13.299495 0.000000 -55.356194
RightHandThumb1 -24.326973 -0.000000 -32.862282
LeftUpLeg -108.925013 18.610714 10.821068
LeftLeg 21.000247 -0.000000 -0.000000
LeftFoot -29.860557 17.787319 -21.968253
LeftToeBase -10.494365 -0.000000 0.000000
RightUpLeg -10.767260 -12.719593 -5.127577
RightLeg 17.284098 -0.000000 -0.000000
RightFoot 17.398615 -6.110057 -5.889968
RightToeBase 8.903679 -0.000000 -0.000000
497
root 0.017739 32.462515 -0.530557 210.444885 -62.719075 -82.299541
Spine 3.839591 13.571080 -18.724668
Head -74.956475 11.418741 9.091474
LeftShoulder -3.673169 -16.352137 43.428040
LeftArm 69.344453 -48.730812 -52.121464
LeftForeArm 15.783363 0.000000 26.701439
LeftHand -45.634896 -0.000000 66.767424
LeftHandThumb1 -26.253704 0.000000 33.147579
RightShoulder 3.181954 37.962018 -41.764117
RightArm 50.535490 38.220882 41.940631
RightForeArm -11.746731 -0.000000 30.823290
RightHand -13.335080 -0.000000 -56.757888
RightHandThumb1 -24.326973 -0.000000 -32.862282
LeftUpLeg -107.946888 19.478258 11.126753
LeftLeg 16.107525 -0.000000 -0.000000
LeftFoot -25.495144 17.164260 -20.629920
LeftToeBase -11.005384 -0.000000 0.000000
RightUpLeg -8.685319 -12.698461 -5.672310
RightLeg 17.077341 -0.000000 -0.000000
RightFoot 18.241971 -5.927229 -6.100817
RightToeBase 9.300396 -0.000000 -0.000000
498
root -0.377590 32.704654 -0.549750 209.953155 -63.001859 -79.796006
Spine 2.859738 14.188386 -18.212254
Head -75.037316 11.233920 9.407344
LeftShoulder -4.769034 -15.859966 43.578942
LeftArm 71.873822 -48.224978 -54.181352
LeftForeArm 15.943741 -0.000000 27.144841
LeftHand -45.708920 -0.000000 67.532942
LeftHandThumb1 -26.253704 0.000000 33.147579
RightShoulder 2.407035 35.954601 -40.502295
RightArm 53.105733 39.519646 42.187579
RightForeArm -11.901333 -0.000000 31.197495
RightHand -12.886236 0.000000 -57.137263
RightHandThumb1 -24.326973 -0.000000 -32.862282
LeftUpLeg -106.935584 20.426854 11.509062
LeftLeg 11.473010 -0.000000 -0.000000
LeftFoot -20.575079 16.170924 -19.378114
LeftToeBase -12.484748 -0.000000 0.000000
RightUpLeg -6.451413 -12.652109 -6.301505
RightLeg 16.655284 -0.000000 -0.000000
RightFoot 19.268667 -5.824140 -6.124105
RightToeBase 9.690644 -0.000000 -0.000000
499
root -0.747427 32.936737 -0.570883 209.377172 -63.196695 -77.367268
Spine 1.989114 14.759427 -17.748089
Head -75.221593 11.393573 9.449154
LeftShoulder -5.941724 -15.177451 44.077832
LeftArm 73.173111 -47.579785 -54.909758
LeftForeArm 14.996312 -0.000000 27.267929
LeftHand -45.752509 -0.000000 67.818474
LeftHandThumb1 -26.253704 0.000000 33.147579
RightShoulder 1.402691 34.602535 -39.727381
RightArm 55.042734 40.269237 42.547376
RightForeArm -11.888880 -0.000000 31.615778
RightHand -12.431727 -0.000000 -56.883516
RightHandThumb1 -24.326973 -0.000000 -32.862282
LeftUpLeg -106.019148 21.459556 11.806530
LeftLeg 7.467095 -0.000000 -0.000000
LeftFoot -15.520758 14.722932 -17.652463
LeftToeBase -12.745189 -0.000000 0.000000
RightUpLeg -4.085472 -12.582543 -7.026207
RightLeg 16.164509 -0.000000 -0.000000
RightFoot 20.327249 -5.653875 -6.172808
RightToeBase 10.075893 -0.000000 -0.000000
500
root -1.086011 33.155282 -0.576392 208.898303 -63.336011 -75.148768
Spine 1.074675 15.351014 -17.244881
Head -75.269557 11.357843 9.231897
LeftShoulder -6.712416 -14.567381 44.365387
LeftArm 73.390184 -47.114719 -54.111511
LeftForeArm 13.129648 -0.000000 26.948874
LeftHand -46.041835 -0.000000 69.321644
LeftHandThumb1 -26.253704 0.000000 33.147579
RightShoulder 0.474848 33.442619 -39.312388
RightArm 56.545734 40.811346 42.785112
RightForeArm -11.801045 0.000000 31.866017
RightHand -12.122388 -0.000000 -56.577294
RightHandThumb1 -24.326973 -0.000000 -32.862282
LeftUpLeg -105.372090 22.453194 12.218466
LeftLeg 4.802140 -0.000000 -0.000000
LeftFoot -11.094468 13.328281 -16.240966
LeftToeBase -12.563840 -0.000000 0.000000
RightUpLeg -1.688714 -12.569818 -7.911058
RightLeg 15.697418 -0.000000 -0.000000
RightFoot 21.479827 -5.134387 -6.131836
RightToeBase 10.597712 -0.000000 -0.000000
501
root -1.411109 33.363429 -0.560047 208.734892 -63.415730 -73.265939
Spine 0.035900 15.867936 -16.886614
Head -75.278959 11.329496 8.969591
LeftShoulder -7.213091 -13.872631 44.672533
LeftArm 73.138308 -46.851937 -52.762109
LeftForeArm 10.361592 0.000000 26.600196
LeftHand -47.836766 -0.000000 71.184822
LeftHandThumb1 -26.253704 0.000000 33.147579
RightShoulder -0.406163 32.379117 -39.103255
RightArm 57.634836 41.060996 42.567982
RightForeArm -11.201959 -0.000000 31.767042
RightHand -11.871784 -0.000000 -56.970660
RightHandThumb1 -24.326973 -0.000000 -32.862282
LeftUpLeg -104.897054 23.417797 12.996692
LeftLeg 3.759098 -0.000000 -0.000000
LeftFoot -8.211824 13.537669 -15.369945
LeftToeBase -13.844307 -0.000000 0.000000
RightUpLeg 0.565922 -12.523849 -8.959425
RightLeg 15.275754 -0.000000 -0.000000
RightFoot 22.582365 -4.684588 -6.536818
RightToeBase 10.595469 -0.000000 -0.000000
502
root -1.716613 33.565383 -0.534270 208.649722 -63.394445 -71.433576
Spine -1.214472 16.341747 -16.727933
Head -75.224322 11.525541 8.888778
LeftShoulder -7.772954 -13.276572 44.976327
LeftArm 73.382393 -46.418851 -51.604249
LeftForeArm 8.445768 -0.000000 25.424486
LeftHand -47.447527 0.000000 73.363352
LeftHandThumb1 -26.253704 0.000000 33.147579
RightShoulder -1.724610 34.319284 -40.902577
RightArm 54.842502 39.499325 43.037643
RightForeArm -11.668038 -0.000000 33.236361
RightHand -12.225884 -0.000000 -57.635519
RightHandThumb1 -24.326973 -0.000000 -32.862282
LeftUpLeg -104.450415 24.536341 14.431082
LeftLeg 4.186499 -0.000000 -0.000000
LeftFoot -7.118136 15.104279 -14.845798
LeftToeBase -14.370492 -0.000000 0.000000
RightUpLeg 2.578969 -12.283525 -10.009433
RightLeg 15.135834 -0.000000 -0.000000
RightFoot 23.460447 -4.420348 -6.764817
RightToeBase 9.934095 -0.000000 -0.000000
503
root -2.016500 33.753795 -0.498406 208.626251 -63.408980 -69.878326
Spine -2.175290 16.672779 -16.479348
Head -75.411101 11.589290 8.528868
LeftShoulder -8.070974 -12.635507 44.832302
LeftArm 73.726097 -46.423800 -50.306321
LeftForeArm 6.803942 0.000000 24.241194
LeftHand -47.797032 -0.000000 75.417246
LeftHandThumb1 -26.253704 0.000000 33.147579
RightShoulder -2.526668 34.378475 -41.225047
RightArm 54.854066 38.957523 42.617338
RightForeArm -11.258272 -0.000000 32.893038
RightHand -12.161764 -0.000000 -58.830727
RightHandThumb1 -24.326973 -0.000000 -32.862282
LeftUpLeg -103.648248 25.491193 16.372690
LeftLeg 5.440203 -0.000000 -0.000000
LeftFoot -7.277613 17.455984 -14.850289
LeftToeBase -13.823732 -0.000000 0.000000
RightUpLeg 4.612743 -12.051018 -11.156024
RightLeg 15.149261 -0.000000 -0.000000
RightFoot 24.233126 -4.047389 -7.389738
RightToeBase 10.498007 -0.000000 -0.000000
